<?xml version="1.0" encoding="UTF-8" standalone="no"?>
<svg
   xmlns:dc="http://purl.org/dc/elements/1.1/"
   xmlns:cc="http://creativecommons.org/ns#"
   xmlns:rdf="http://www.w3.org/1999/02/22-rdf-syntax-ns#"
   xmlns:svg="http://www.w3.org/2000/svg"
   xmlns="http://www.w3.org/2000/svg"
   xmlns:sodipodi="http://sodipodi.sourceforge.net/DTD/sodipodi-0.dtd"
   xmlns:inkscape="http://www.inkscape.org/namespaces/inkscape"
   sodipodi:docname="eigth_note_down.svg"
   inkscape:version="1.0 (4035a4fb49, 2020-05-01)"
   id="svg8"
   version="1.1"
   viewBox="0 0 15 15"
   height="15mm"
   width="15mm">
  <defs
     id="defs2" />
  <sodipodi:namedview
     inkscape:window-maximized="1"
     inkscape:window-y="31"
     inkscape:window-x="0"
     inkscape:window-height="1021"
     inkscape:window-width="1920"
     showgrid="false"
     inkscape:document-rotation="0"
     inkscape:current-layer="layer1"
     inkscape:document-units="mm"
     inkscape:cy="41.468693"
     inkscape:cx="37.294558"
     inkscape:zoom="7.9195959"
     inkscape:pageshadow="2"
     inkscape:pageopacity="0.0"
     borderopacity="1.0"
     bordercolor="#666666"
     pagecolor="#ffffff"
     id="base" />
  <metadata
     id="metadata5">
    <rdf:RDF>
      <cc:Work
         rdf:about="">
        <dc:format>image/svg+xml</dc:format>
        <dc:type
           rdf:resource="http://purl.org/dc/dcmitype/StillImage" />
        <dc:title></dc:title>
      </cc:Work>
    </rdf:RDF>
  </metadata>
  <g
     id="layer1"
     inkscape:groupmode="layer"
     inkscape:label="Layer 1">
    <ellipse
       transform="rotate(-17.955382)"
       cx="9.5153084"
       cy="5.9768925"
       rx="3.7972147"
       ry="2.3392117"
       id="path867"
       style="fill:#ffffff;fill-opacity:1;stroke:#0c0a06;stroke-width:0.1;stroke-miterlimit:4;stroke-dasharray:none;stroke-opacity:1" />
    <path
       style="fill:#000000;stroke:#ffffff;stroke-width:0.0126269"
       d="m 12.079018,0.3080326 c 1.473481,0.0495916 2.488542,0.8076156 2.425152,1.811051 -0.04906,0.7766108 -0.644888,1.5781297 -1.629886,2.1925595 C 11.15278,5.3854954 8.8780638,5.4961911 7.8042055,4.5583706 7.1550827,3.9914789 7.1079302,3.1912461 7.6734798,2.3398057 8.4697431,1.1410219 10.398565,0.25147593 12.079018,0.3080326 Z"
       id="path832" />
    <path
       id="path835"
       d="m 9.127071,13.699242 c 0,0 -5.0831622,0.639888 -7.366533,-0.238462"
       style="fill:none;stroke:#000000;stroke-width:0.13268;stroke-linecap:butt;stroke-linejoin:miter;stroke-miterlimit:4;stroke-dasharray:none;stroke-opacity:1" />
    <path
       id="path839"
       d="m 9.1597581,11.748097 c 0,0 -2.9424002,1.337469 -5.1708091,1.525076 C 1.760538,13.46078 1.760538,13.46078 1.760538,13.46078"
       style="fill:none;stroke:#000000;stroke-width:0.133967;stroke-linecap:butt;stroke-linejoin:miter;stroke-miterlimit:4;stroke-dasharray:none;stroke-opacity:1" />
    <path
       id="path861"
       d="m 7.2574684,4.0860607 c 0,0 1.9501464,5.6395441 1.8703462,7.5767783 -0.0798,1.937235 -0.0798,1.937235 -0.0798,1.937235"
       style="fill:none;stroke:#000000;stroke-width:0.1;stroke-linecap:butt;stroke-linejoin:miter;stroke-miterlimit:4;stroke-dasharray:none;stroke-opacity:1" />
    <path
       id="path863"
       d="m 9.0790762,11.926168 c 0.00239,0.02105 -0.0036,0.406292 -0.013345,0.856091 l -0.017717,0.817815 -0.3761612,0.03635 c -2.2160758,0.214125 -3.5478143,0.245647 -4.9603336,0.117424 -0.4700668,-0.04267 -1.3445012,-0.183349 -1.3867219,-0.223094 -0.00923,-0.0087 0.6144749,-0.08278 1.386003,-0.16466 1.4736436,-0.156388 1.826937,-0.225178 2.9138315,-0.567355 0.7937654,-0.249894 1.7543398,-0.605073 2.379624,-0.879882 0.038747,-0.01703 0.072415,-0.01374 0.074819,0.0073 z"
       style="fill:#000000;stroke:#ffffff;stroke-width:0.0167533;stroke-miterlimit:4;stroke-dasharray:none" />
  </g>
</svg>
