<?xml version="1.0" encoding="UTF-8" standalone="no"?>
<svg
   xmlns:dc="http://purl.org/dc/elements/1.1/"
   xmlns:cc="http://creativecommons.org/ns#"
   xmlns:rdf="http://www.w3.org/1999/02/22-rdf-syntax-ns#"
   xmlns:svg="http://www.w3.org/2000/svg"
   xmlns="http://www.w3.org/2000/svg"
   xmlns:sodipodi="http://sodipodi.sourceforge.net/DTD/sodipodi-0.dtd"
   xmlns:inkscape="http://www.inkscape.org/namespaces/inkscape"
   sodipodi:docname="half_note.svg"
   inkscape:version="1.0 (4035a4fb49, 2020-05-01)"
   id="svg8"
   version="1.1"
   viewBox="0 0 15 15"
   height="15mm"
   width="15mm">
  <defs
     id="defs2" />
  <sodipodi:namedview
     inkscape:window-maximized="1"
     inkscape:window-y="31"
     inkscape:window-x="0"
     inkscape:window-height="1021"
     inkscape:window-width="1920"
     showgrid="false"
     inkscape:document-rotation="0"
     inkscape:current-layer="layer1"
     inkscape:document-units="mm"
     inkscape:cy="41.089886"
     inkscape:cx="37.294558"
     inkscape:zoom="7.9195959"
     inkscape:pageshadow="2"
     inkscape:pageopacity="0.0"
     borderopacity="1.0"
     bordercolor="#666666"
     pagecolor="#ffffff"
     id="base" />
  <metadata
     id="metadata5">
    <rdf:RDF>
      <cc:Work
         rdf:about="">
        <dc:format>image/svg+xml</dc:format>
        <dc:type
           rdf:resource="http://purl.org/dc/dcmitype/StillImage" />
        <dc:title></dc:title>
      </cc:Work>
    </rdf:RDF>
  </metadata>
  <g
     id="layer1"
     inkscape:groupmode="layer"
     inkscape:label="Layer 1">
    <ellipse
       transform="rotate(167.26671)"
       cx="-3.9782858"
       cy="-12.410943"
       rx="3.7972147"
       ry="2.3392117"
       id="path867"
       style="fill:#ffffff;fill-opacity:1;stroke:#0c0a06;stroke-width:0.1;stroke-miterlimit:4;stroke-dasharray:none;stroke-opacity:1" />
    <path
       id="path887"
       d="M 10.354159,10.752223 10.291263,0.49703992"
       style="fill:none;stroke:#000000;stroke-width:0.1;stroke-linecap:butt;stroke-linejoin:miter;stroke-miterlimit:4;stroke-dasharray:none;stroke-opacity:1" />
    <path
       style="fill:#000000;stroke:#ffffff;stroke-width:0.0477237"
       d="m 19.705747,51.232662 c -5.528889,-0.693529 -9.088653,-3.895794 -8.504882,-7.650756 0.451811,-2.906162 2.970129,-5.717988 6.88887,-7.691764 6.848869,-3.449612 15.448617,-3.083751 19.167838,0.815462 2.248184,2.356986 2.150379,5.385156 -0.271153,8.395295 -3.409389,4.238116 -10.97517,6.922709 -17.280673,6.131763 z"
       id="path832"
       transform="scale(0.26458333)" />
    <path
       transform="scale(0.26458333)"
       id="path833"
       d="m 19.511441,51.116078 c -1.926403,-0.28152 -3.755637,-0.933281 -5.181742,-1.84627 -2.313724,-1.481241 -3.436549,-3.704145 -2.985084,-5.909697 0.982363,-4.799164 7.479128,-8.975424 15.045846,-9.671794 5.315424,-0.489181 10.29624,1.446113 11.851258,4.604801 1.12443,2.284041 0.395187,4.937378 -2.059802,7.494551 -2.551362,2.657558 -6.797476,4.630109 -11.364392,5.27938 -1.389087,0.197483 -4.117696,0.222697 -5.306084,0.04903 z"
       style="fill:#000000;stroke:#ffffff;stroke-width:0.0477237" />
    <path
       transform="scale(0.26458333)"
       id="path835"
       d="m 18.679153,50.867847 c -3.300019,-0.712794 -5.795074,-2.344586 -6.837823,-4.472005 -0.401236,-0.818603 -0.431649,-0.966665 -0.427961,-2.08344 0.0035,-1.0604 0.05026,-1.309724 0.396433,-2.113658 1.813247,-4.211031 7.408232,-7.540428 14.054093,-8.363143 5.430411,-0.67225 10.707526,1.306699 12.330542,4.624024 0.516818,1.056338 0.572095,2.550787 0.140275,3.792482 -1.345224,3.868192 -6.303007,7.2987 -12.293434,8.506368 -2.039085,0.411078 -5.712652,0.465653 -7.362125,0.109372 z"
       style="fill:#ffffff;stroke:#ffffff;stroke-width:0.0477237" />
  </g>
</svg>
