<?xml version="1.0" encoding="UTF-8" standalone="no"?>
<svg
   xmlns:dc="http://purl.org/dc/elements/1.1/"
   xmlns:cc="http://creativecommons.org/ns#"
   xmlns:rdf="http://www.w3.org/1999/02/22-rdf-syntax-ns#"
   xmlns:svg="http://www.w3.org/2000/svg"
   xmlns="http://www.w3.org/2000/svg"
   xmlns:sodipodi="http://sodipodi.sourceforge.net/DTD/sodipodi-0.dtd"
   xmlns:inkscape="http://www.inkscape.org/namespaces/inkscape"
   sodipodi:docname="half_note_down.svg"
   inkscape:version="1.0 (4035a4fb49, 2020-05-01)"
   id="svg8"
   version="1.1"
   viewBox="0 0 15 15"
   height="15mm"
   width="15mm">
  <defs
     id="defs2" />
  <sodipodi:namedview
     inkscape:window-maximized="1"
     inkscape:window-y="31"
     inkscape:window-x="0"
     inkscape:window-height="1021"
     inkscape:window-width="1920"
     showgrid="false"
     inkscape:document-rotation="0"
     inkscape:current-layer="layer1"
     inkscape:document-units="mm"
     inkscape:cy="31.231111"
     inkscape:cx="29.211041"
     inkscape:zoom="7.9195959"
     inkscape:pageshadow="2"
     inkscape:pageopacity="0.0"
     borderopacity="1.0"
     bordercolor="#666666"
     pagecolor="#ffffff"
     id="base" />
  <metadata
     id="metadata5">
    <rdf:RDF>
      <cc:Work
         rdf:about="">
        <dc:format>image/svg+xml</dc:format>
        <dc:type
           rdf:resource="http://purl.org/dc/dcmitype/StillImage" />
        <dc:title></dc:title>
      </cc:Work>
    </rdf:RDF>
  </metadata>
  <g
     id="layer1"
     inkscape:groupmode="layer"
     inkscape:label="Layer 1">
    <ellipse
       transform="rotate(-12.254569)"
       cx="6.5487614"
       cy="5.4036636"
       rx="3.7972147"
       ry="2.3392117"
       id="path867"
       style="fill:#ffffff;fill-opacity:1;stroke:#0c0a06;stroke-width:0.1;stroke-miterlimit:4;stroke-dasharray:none;stroke-opacity:1" />
    <path
       id="path887"
       d="M 3.8044687,4.3359033 3.7816789,14.591254"
       style="fill:none;stroke:#000000;stroke-width:0.1;stroke-linecap:butt;stroke-linejoin:miter;stroke-miterlimit:4;stroke-dasharray:none;stroke-opacity:1" />
    <path
       style="fill:#000000;stroke:#ffffff;stroke-width:0.0477237"
       d="m 22.771318,23.400434 c -5.112275,-0.828357 -8.373832,-3.719891 -8.109035,-7.189068 0.236817,-3.102609 3.001697,-6.2282905 7.318684,-8.2737296 6.569189,-3.1125593 14.656319,-2.780845 18.444108,0.7565322 1.458778,1.3623384 2.069927,2.7869634 1.946458,4.5373154 -0.302782,4.292402 -5.545833,8.493004 -12.394102,9.929846 -1.952079,0.409568 -5.439863,0.525295 -7.206113,0.239104 z"
       id="path875"
       transform="scale(0.26458333)" />
    <path
       transform="scale(0.26458333)"
       id="path833"
       d="m 22.897588,23.325594 c -4.668747,-0.672779 -8.144355,-3.521319 -8.144355,-6.67495 0,-4.026341 4.560216,-8.2042551 10.830835,-9.922841 7.149388,-1.9594294 14.145214,-0.2527521 16.217335,3.956324 0.390713,0.793651 0.415187,0.922504 0.412569,2.172179 -0.0025,1.204794 -0.03943,1.41334 -0.396433,2.239927 -1.768747,4.095299 -7.54386,7.565466 -13.706376,8.235929 -1.422138,0.154724 -4.117854,0.151329 -5.213575,-0.0066 z"
       style="fill:#ffffff;stroke:#ffffff;stroke-width:0.0477237" />
  </g>
</svg>
