<?xml version="1.0" encoding="UTF-8" standalone="no"?>
<svg
   xmlns:dc="http://purl.org/dc/elements/1.1/"
   xmlns:cc="http://creativecommons.org/ns#"
   xmlns:rdf="http://www.w3.org/1999/02/22-rdf-syntax-ns#"
   xmlns:svg="http://www.w3.org/2000/svg"
   xmlns="http://www.w3.org/2000/svg"
   xmlns:sodipodi="http://sodipodi.sourceforge.net/DTD/sodipodi-0.dtd"
   xmlns:inkscape="http://www.inkscape.org/namespaces/inkscape"
   sodipodi:docname="Next_pressed.svg"
   inkscape:version="1.0 (4035a4fb49, 2020-05-01)"
   id="svg8"
   version="1.1"
   viewBox="0 0 50 50"
   height="50mm"
   width="50mm">
  <defs
     id="defs2" />
  <sodipodi:namedview
     inkscape:window-maximized="1"
     inkscape:window-y="31"
     inkscape:window-x="0"
     inkscape:window-height="1021"
     inkscape:window-width="1920"
     showgrid="false"
     inkscape:document-rotation="0"
     inkscape:current-layer="layer1"
     inkscape:document-units="mm"
     inkscape:cy="92.632046"
     inkscape:cx="84.719631"
     inkscape:zoom="2.8"
     inkscape:pageshadow="2"
     inkscape:pageopacity="0.0"
     borderopacity="1.0"
     bordercolor="#666666"
     pagecolor="#ffffff"
     id="base" />
  <metadata
     id="metadata5">
    <rdf:RDF>
      <cc:Work
         rdf:about="">
        <dc:format>image/svg+xml</dc:format>
        <dc:type
           rdf:resource="http://purl.org/dc/dcmitype/StillImage" />
        <dc:title></dc:title>
      </cc:Work>
    </rdf:RDF>
  </metadata>
  <g
     id="layer1"
     inkscape:groupmode="layer"
     inkscape:label="Layer 1">
    <path
       id="path835"
       d="M -0.04795642,0.04025686 0.14215056,49.89333 49.956172,49.923448 50.031874,0.13683008 Z"
       style="fill:none;stroke:#000000;stroke-width:0.264583px;stroke-linecap:butt;stroke-linejoin:miter;stroke-opacity:1" />
    <path
       id="path859"
       d="m 6.8057788,20.631285 26.4999262,-0.0089"
       style="fill:none;stroke:#000000;stroke-width:0.220362px;stroke-linecap:butt;stroke-linejoin:miter;stroke-opacity:1" />
    <path
       style="fill:none;stroke:#000000;stroke-width:0.220094px;stroke-linecap:butt;stroke-linejoin:miter;stroke-opacity:1"
       d="M 6.8057766,30.94645 33.305704,30.93755"
       id="path859-3" />
    <path
       id="path880"
       d="m 6.8057788,20.631285 -2e-7,10.315163"
       style="fill:none;stroke:#000000;stroke-width:0.264583px;stroke-linecap:butt;stroke-linejoin:miter;stroke-opacity:1" />
    <path
       id="path882"
       d="M 33.305704,20.622385 33.210372,14.759201 44.035461,25.877002 33.42554,35.339044 33.305704,30.93755"
       style="fill:none;stroke:#000000;stroke-width:0.264583px;stroke-linecap:butt;stroke-linejoin:miter;stroke-opacity:1" />
    <path
       transform="scale(0.26458333)"
       id="path886"
       d="M 69.137767,187.89991 1.4130452,187.80878 1.1930458,172.1847 C 1.0720462,163.59145 0.87227872,121.5249 0.74911819,78.703475 L 0.52518997,0.84633192 94.402285,0.95954092 C 146.03469,1.0218059 188.33771,1.1310773 188.409,1.2023662 c 0.0713,0.071289 0.0104,42.1676658 -0.13527,93.5475048 l -0.26488,93.417889 -25.57318,-0.0884 c -14.06525,-0.0486 -56.04931,-0.12936 -93.297903,-0.17949 z m 77.643943,-71.58954 c 11.24086,-10.02831 20.43792,-18.354209 20.43792,-18.502002 0,-0.216547 -27.76844,-28.908832 -39.57399,-40.890607 l -2.81512,-2.857143 0.202,11.696428 0.202,11.696429 H 75.631285 c -27.281779,0 -49.85745,0.09755 -50.168158,0.216782 -0.505625,0.194025 -0.564924,2.270646 -0.564924,19.783218 0,17.512575 0.0593,19.589195 0.564924,19.783215 0.310708,0.11923 22.865826,0.21678 50.122486,0.21678 h 49.557557 l 0.23466,5.9499 c 0.12906,3.27244 0.23466,7.21943 0.23466,8.77108 0,1.83362 0.12799,2.74207 0.36565,2.59519 0.20111,-0.12429 9.56272,-8.43097 20.80357,-18.45927 z"
       style="fill:#aaaffd;fill-opacity:1;stroke:#ffffff;stroke-width:0.134983" />
    <path
       transform="scale(0.26458333)"
       id="path888"
       d="m 126.91491,129.00695 c -0.12705,-1.50297 -0.23099,-4.86088 -0.23099,-7.46201 0,-3.98307 -0.0892,-4.76354 -0.56493,-4.94611 -0.31071,-0.11923 -22.89106,-0.21678 -50.178569,-0.21678 H 26.326774 V 97.453475 78.524903 h 49.613647 c 27.287509,0 49.836039,-0.08534 50.107859,-0.189647 0.40875,-0.156851 0.46864,-1.809024 0.34631,-9.553571 -0.0814,-5.150159 -0.0897,-9.731008 -0.0186,-10.179666 0.10775,-0.6796 3.34798,2.496361 19.41505,19.029971 10.60714,10.915141 19.28571,19.972156 19.28571,20.126703 0,0.22415 -35.25949,31.867747 -37.36623,33.534287 -0.50117,0.39645 -0.5906,0.13951 -0.79563,-2.28603 z"
       style="fill:#ff0000;fill-opacity:1;stroke:#ffffff;stroke-width:0.134983" />
  </g>
</svg>
