<?xml version="1.0" encoding="UTF-8" standalone="no"?>
<svg
   xmlns:dc="http://purl.org/dc/elements/1.1/"
   xmlns:cc="http://creativecommons.org/ns#"
   xmlns:rdf="http://www.w3.org/1999/02/22-rdf-syntax-ns#"
   xmlns:svg="http://www.w3.org/2000/svg"
   xmlns="http://www.w3.org/2000/svg"
   xmlns:sodipodi="http://sodipodi.sourceforge.net/DTD/sodipodi-0.dtd"
   xmlns:inkscape="http://www.inkscape.org/namespaces/inkscape"
   sodipodi:docname="Play.svg"
   inkscape:version="1.0 (4035a4fb49, 2020-05-01)"
   id="svg8"
   version="1.1"
   viewBox="0 0 50 50"
   height="50mm"
   width="50mm">
  <defs
     id="defs2" />
  <sodipodi:namedview
     inkscape:window-maximized="1"
     inkscape:window-y="31"
     inkscape:window-x="0"
     inkscape:window-height="1021"
     inkscape:window-width="1920"
     showgrid="false"
     inkscape:document-rotation="0"
     inkscape:current-layer="layer1"
     inkscape:document-units="mm"
     inkscape:cy="91.560618"
     inkscape:cx="84.719631"
     inkscape:zoom="2.8"
     inkscape:pageshadow="2"
     inkscape:pageopacity="0.0"
     borderopacity="1.0"
     bordercolor="#666666"
     pagecolor="#ffffff"
     id="base" />
  <metadata
     id="metadata5">
    <rdf:RDF>
      <cc:Work
         rdf:about="">
        <dc:format>image/svg+xml</dc:format>
        <dc:type
           rdf:resource="http://purl.org/dc/dcmitype/StillImage" />
        <dc:title></dc:title>
      </cc:Work>
    </rdf:RDF>
  </metadata>
  <g
     id="layer1"
     inkscape:groupmode="layer"
     inkscape:label="Layer 1">
    <path
       id="path833"
       d="M 15.237096,8.776296 41.915487,25.627779 15.523197,41.096253 Z"
       style="fill:#ff0000;stroke:#000000;stroke-width:0.264583px;stroke-linecap:butt;stroke-linejoin:miter;stroke-opacity:1" />
    <path
       id="path835"
       d="M -0.04795642,0.04025686 0.14215056,49.89333 49.956172,49.923448 50.031874,0.13683008 Z"
       style="fill:none;stroke:#000000;stroke-width:0.264583px;stroke-linecap:butt;stroke-linejoin:miter;stroke-opacity:1" />
    <path
       transform="scale(0.26458333)"
       id="path839"
       d="M 69.137767,187.89991 1.4130452,187.80878 1.1930458,172.1847 C 1.0720462,163.59145 0.87227872,121.5249 0.74911819,78.703475 L 0.52518997,0.84633192 94.402285,0.95954092 C 146.03469,1.0218059 188.33771,1.1310773 188.409,1.2023662 c 0.0713,0.071289 0.0104,42.1676658 -0.13527,93.5475048 l -0.26488,93.417889 -25.57318,-0.0884 c -14.06525,-0.0486 -56.04931,-0.12936 -93.297903,-0.17949 z m 40.526783,-61.61267 c 27.27328,-15.9908 49.60202,-29.220976 49.61941,-29.400397 0.0536,-0.552247 -102.044447,-64.850152 -102.205882,-64.365847 -0.193558,0.580666 0.620839,105.657074 0.89831,115.903424 l 0.214882,7.93523 0.942754,-0.49912 c 0.518511,-0.27452 23.25725,-13.5825 50.530526,-29.57329 z"
       style="fill:#969be9;fill-opacity:1;stroke:#ffffff;stroke-width:0.134983" />
  </g>
</svg>
