<?xml version="1.0" encoding="UTF-8" standalone="no"?>
<svg
   xmlns:dc="http://purl.org/dc/elements/1.1/"
   xmlns:cc="http://creativecommons.org/ns#"
   xmlns:rdf="http://www.w3.org/1999/02/22-rdf-syntax-ns#"
   xmlns:svg="http://www.w3.org/2000/svg"
   xmlns="http://www.w3.org/2000/svg"
   xmlns:sodipodi="http://sodipodi.sourceforge.net/DTD/sodipodi-0.dtd"
   xmlns:inkscape="http://www.inkscape.org/namespaces/inkscape"
   width="50mm"
   height="50mm"
   viewBox="0 0 50 50"
   version="1.1"
   id="svg8"
   inkscape:version="1.0 (4035a4fb49, 2020-05-01)"
   sodipodi:docname="User.svg">
  <defs
     id="defs2" />
  <sodipodi:namedview
     showguides="false"
     id="base"
     pagecolor="#ffffff"
     bordercolor="#666666"
     borderopacity="1.0"
     inkscape:pageopacity="0.0"
     inkscape:pageshadow="2"
     inkscape:zoom="2.8"
     inkscape:cx="84.719631"
     inkscape:cy="91.560618"
     inkscape:document-units="mm"
     inkscape:current-layer="layer1"
     inkscape:document-rotation="0"
     showgrid="false"
     inkscape:window-width="1920"
     inkscape:window-height="1021"
     inkscape:window-x="0"
     inkscape:window-y="31"
     inkscape:window-maximized="1" />
  <metadata
     id="metadata5">
    <rdf:RDF>
      <cc:Work
         rdf:about="">
        <dc:format>image/svg+xml</dc:format>
        <dc:type
           rdf:resource="http://purl.org/dc/dcmitype/StillImage" />
        <dc:title></dc:title>
      </cc:Work>
    </rdf:RDF>
  </metadata>
  <g
     inkscape:label="Layer 1"
     inkscape:groupmode="layer"
     id="layer1">
    <path
       style="fill:none;stroke:#000000;stroke-width:0.264583px;stroke-linecap:butt;stroke-linejoin:miter;stroke-opacity:1"
       d="M -0.04795642,0.04025686 0.14215056,49.89333 49.956172,49.923448 50.031874,0.13683008 Z"
       id="path835" />
    <path
       transform="scale(0.26458333)"
       id="path837"
       d="M 69.137767,187.89991 1.4130451,187.80878 1.1930457,172.1847 C 1.072046,163.59145 0.87227861,121.5249 0.74911807,78.703475 L 0.52518986,0.84633229 94.402285,0.95954129 C 146.03469,1.0218062 188.33771,1.1310776 188.409,1.2023666 c 0.0713,0.071289 0.0104,42.1676654 -0.13527,93.5475054 l -0.26488,93.417888 -25.57318,-0.0884 c -14.06525,-0.0486 -56.04931,-0.12936 -93.297903,-0.17949 z"
       style="fill:#969be9;stroke:#ffffff;stroke-width:0.134983;fill-opacity:1" />
    <ellipse
       ry="10.9248"
       rx="9.0028038"
       cy="11.3694"
       cx="24.015953"
       id="path839"
       style="fill:#ff0000;fill-opacity:1;stroke:#000000;stroke-width:0.2;stroke-miterlimit:4;stroke-dasharray:none;stroke-opacity:1" />
    <rect
       y="22.760576"
       x="14.954973"
       height="26.233263"
       width="19.020597"
       id="rect845"
       style="fill:#ff0000;fill-opacity:1;stroke:#ffffff;stroke-width:0.0719189" />
    <path
       id="path847"
       d="M 14.954973,22.760576 5.8704945,22.904344 14.954973,48.99384"
       style="fill:none;stroke:#000000;stroke-width:0.264583px;stroke-linecap:butt;stroke-linejoin:miter;stroke-opacity:1" />
    <path
       id="path849"
       d="m 33.975571,22.760576 8.190363,-0.09645 -8.190363,26.329716"
       style="fill:none;stroke:#000000;stroke-width:0.264583px;stroke-linecap:butt;stroke-linejoin:miter;stroke-opacity:1" />
    <path
       id="path851"
       d="m 14.954973,22.760576 h 19.020598 v 26.233266 l -19.020598,-2e-6 z"
       style="fill:none;stroke:#000000;stroke-width:0.264583px;stroke-linecap:butt;stroke-linejoin:miter;stroke-opacity:1" />
    <path
       transform="scale(0.26458333)"
       id="path853"
       d=""
       style="fill:#ff0000;fill-opacity:1;stroke:#000000;stroke-width:0.269966;stroke-miterlimit:4;stroke-dasharray:none;stroke-opacity:1" />
    <path
       transform="scale(0.26458333)"
       id="path855"
       d="M 39.486126,134.1115 23.181193,87.274904 39.431253,86.981935 c 8.937532,-0.161133 16.315526,-0.227502 16.395541,-0.147487 0.08002,0.08002 0.104708,21.288322 0.05487,47.129562 l -0.09061,46.98408 z"
       style="fill:#ff0000;fill-opacity:1;stroke:#000000;stroke-width:0.269966;stroke-miterlimit:4;stroke-dasharray:none;stroke-opacity:1" />
    <path
       transform="scale(0.26458333)"
       id="path857"
       d="m 129.21211,133.29795 -0.0282,-46.476956 10.44643,-0.246358 c 5.74553,-0.135497 12.31018,-0.194082 14.58811,-0.130188 l 4.14169,0.11617 -14.34218,46.071432 c -7.88819,25.33928 -14.44016,46.3125 -14.55992,46.60714 -0.11976,0.29464 -0.23043,-20.37891 -0.24594,-45.94124 z"
       style="fill:#ff0000;fill-opacity:1;stroke:#000000;stroke-width:0.269966;stroke-miterlimit:4;stroke-dasharray:none;stroke-opacity:1" />
  </g>
</svg>
